<?xml version="1.0" standalone="no"?>
<!DOCTYPE svg PUBLIC "-//W3C//DTD SVG 20010904//EN"
 "http://www.w3.org/TR/2001/REC-SVG-20010904/DTD/svg10.dtd">
<svg version="1.0" xmlns="http://www.w3.org/2000/svg"
 width="1080.000000pt" height="2220.000000pt" viewBox="0 0 1080.000000 2220.000000"
 preserveAspectRatio="xMidYMid meet">

<g transform="translate(0.000000,2220.000000) scale(0.100000,-0.100000)"
fill="#000000" stroke="none">
<path d="M9429 22096 c92 -92 102 -106 92 -124 -14 -26 3 -40 25 -21 13 11 20
7 46 -20 25 -26 28 -35 17 -42 -8 -5 -20 -9 -26 -9 -7 0 -13 -4 -13 -10 0 -5
11 -10 24 -10 55 0 80 -80 32 -101 -32 -15 -73 -4 -81 21 -3 11 -13 20 -22 20
-10 0 -13 -6 -9 -16 3 -9 6 -17 6 -20 0 -2 14 -11 31 -20 63 -32 129 4 129 70
0 27 57 -27 556 -525 305 -305 557 -556 559 -557 2 -2 4 92 5 209 l1 213 -283
284 c-162 162 -278 286 -270 289 7 3 12 23 12 49 l0 44 -59 0 -58 0 -196 190
-195 190 -213 0 -214 0 104 -104z m564 -184 c15 -15 29 -42 33 -58 7 -36 -16
-88 -45 -104 -17 -8 -18 -7 -14 13 l6 22 -23 -23 c-12 -13 -29 -21 -37 -18 -8
3 -17 6 -19 6 -2 0 -4 9 -4 21 0 11 5 17 10 14 6 -4 24 -4 40 0 22 5 30 14 35
37 8 35 -8 59 -27 40 -7 -7 -22 -12 -34 -12 -32 0 -41 -15 -43 -72 -1 -30 -1
-31 -21 -13 -11 10 -20 25 -20 33 0 19 108 142 124 142 7 0 24 -13 39 -28z
m93 -205 c25 -22 27 -27 15 -41 -13 -15 -16 -15 -41 9 -22 21 -29 23 -38 12
-9 -11 -6 -19 13 -37 29 -27 32 -45 8 -54 -12 -5 -31 7 -62 38 l-46 46 55 55
55 56 6 -30 c3 -16 19 -41 35 -54z m82 11 c-3 -7 -13 -13 -23 -13 -10 0 -20 6
-22 13 -3 7 5 12 22 12 17 0 25 -5 23 -12z m102 -108 c0 -22 -26 -50 -46 -50
-8 0 -14 -8 -14 -18 0 -28 -35 -55 -62 -48 -23 6 -98 71 -98 85 0 4 31 38 70
75 l70 68 40 -47 c22 -25 40 -55 40 -65z m60 -36 c11 -13 6 -23 -38 -67 -55
-56 -62 -71 -35 -81 12 -5 32 9 69 45 45 45 55 50 68 39 25 -20 19 -34 -38
-89 -65 -60 -93 -65 -137 -22 -43 44 -38 72 22 137 55 57 69 63 89 38z m143
-146 c43 -23 60 -72 37 -108 -7 -12 -12 -12 -28 3 -11 10 -18 26 -15 36 6 25
-25 35 -53 16 -34 -22 -48 -53 -33 -71 16 -20 32 -17 26 5 -12 47 24 49 57 5
18 -26 18 -26 -12 -56 l-30 -31 -38 19 c-74 36 -81 102 -18 161 37 35 70 41
107 21z"/>
<path d="M10177 21633 c-8 -7 11 -33 24 -33 5 0 9 9 9 20 0 19 -20 27 -33 13z"/>
<path d="M10124 21579 c-3 -6 1 -18 10 -27 15 -15 18 -15 26 -2 5 9 5 19 -2
27 -13 16 -25 17 -34 2z"/>
<path d="M1773 22019 c-62 -31 -86 -75 -81 -149 3 -46 10 -66 29 -86 34 -37
72 -54 119 -54 162 0 213 219 66 289 -53 26 -80 26 -133 0z m125 -13 c41 -21
63 -50 73 -96 8 -35 6 -50 -12 -86 -24 -52 -61 -74 -119 -74 -58 0 -95 22
-119 73 -56 117 64 241 177 183z"/>
<path d="M1755 21880 c3 -5 42 -10 86 -10 46 0 79 4 79 10 0 6 -35 10 -86 10
-54 0 -83 -4 -79 -10z"/>
<path d="M8158 22015 c-22 -29 -23 -54 -3 -61 20 -8 19 -23 -2 -46 -17 -19
-17 -21 0 -50 16 -28 16 -32 2 -48 -20 -22 -19 -43 4 -64 23 -21 37 -5 19 23
-10 17 -9 23 6 40 18 20 17 30 -6 63 -10 14 -9 21 6 37 17 19 17 21 0 50 -14
24 -16 33 -6 43 13 13 16 38 5 38 -5 0 -16 -11 -25 -25z"/>
<path d="M7460 22005 c-18 -19 -21 -28 -12 -37 9 -9 19 -5 42 17 22 21 27 31
18 37 -19 12 -22 10 -48 -17z"/>
<path d="M7692 22022 c-9 -6 -4 -16 18 -37 23 -22 33 -26 42 -17 9 9 6 18 -12
37 -26 27 -29 29 -48 17z"/>
<path d="M7917 22015 c-4 -8 6 -24 23 -38 33 -28 30 -37 -12 -37 -29 0 -29 -1
-26 -52 l3 -53 40 -3 c32 -3 49 -12 86 -48 25 -24 48 -41 52 -38 4 4 7 32 7
62 0 53 -2 56 -66 125 -81 88 -100 102 -107 82z"/>
<path d="M8047 22012 c-16 -17 -15 -20 13 -47 l30 -29 0 47 c0 51 -14 61 -43
29z"/>
<path d="M621 21999 c-41 -16 -50 -39 -51 -119 0 -98 5 -114 45 -136 29 -15
37 -16 65 -4 41 17 50 43 50 140 0 75 -1 79 -31 104 -33 28 -41 30 -78 15z
m68 -24 c11 -12 20 -97 14 -147 -6 -65 -19 -81 -60 -76 -23 2 -31 11 -41 43
-19 56 -10 164 15 182 15 12 59 10 72 -2z"/>
<path d="M830 21993 c-38 -26 -40 -31 -40 -125 0 -74 3 -91 20 -108 29 -29 64
-35 99 -14 36 21 41 37 41 135 0 66 -3 78 -22 97 -33 30 -68 36 -98 15z m82
-26 c21 -34 19 -156 -4 -200 -14 -27 -69 -19 -85 13 -27 54 -10 194 25 203 22
6 55 -3 64 -16z"/>
<path d="M1143 22000 c-24 -10 -49 -48 -38 -58 4 -4 11 1 16 10 27 49 94 45
105 -5 5 -25 2 -34 -16 -49 -12 -10 -31 -18 -41 -18 -10 0 -19 -4 -19 -10 0
-5 13 -10 28 -10 37 0 52 -17 52 -57 0 -26 -6 -36 -24 -44 -32 -15 -73 -4 -81
21 -6 20 -35 28 -35 10 0 -17 38 -49 65 -56 14 -3 39 -1 56 6 53 22 65 73 25
111 -24 23 -24 23 -4 39 30 24 26 69 -6 97 -29 24 -47 27 -83 13z"/>
<path d="M9341 21997 c-28 -14 -48 -43 -38 -53 4 -4 14 2 23 14 23 33 81 31
96 -4 15 -33 2 -55 -41 -70 -34 -11 -32 -24 4 -24 30 0 45 -19 45 -55 0 -40
-16 -55 -57 -55 -26 0 -36 6 -45 25 -6 14 -17 25 -25 25 -34 0 9 -55 52 -66
14 -3 39 -1 56 6 51 22 65 74 28 111 -18 18 -19 23 -6 37 34 41 26 90 -20 111
-30 14 -42 14 -72 -2z"/>
<path d="M1362 21902 l-64 -97 66 -3 c65 -3 65 -3 68 -34 4 -46 28 -49 28 -4
0 29 4 36 20 36 11 0 20 5 20 10 0 6 -9 10 -20 10 -19 0 -20 7 -20 90 0 122
-15 121 -98 -8z m68 -12 l0 -70 -45 0 c-25 0 -45 2 -45 5 0 8 81 135 86 135 2
0 4 -31 4 -70z"/>
<path d="M7533 21980 c-57 -34 -78 -102 -49 -158 12 -23 12 -30 1 -46 -18 -23
-9 -51 11 -35 8 6 11 15 8 21 -3 5 10 2 29 -6 35 -14 97 -15 130 -1 11 5 24 1
36 -9 24 -22 36 1 14 26 -13 14 -12 20 1 47 58 111 -72 228 -181 161z m85 -53
c3 -31 7 -37 26 -37 15 0 26 -7 29 -19 4 -17 -2 -20 -44 -23 l-49 -3 0 56 c0
31 3 59 7 63 14 14 28 -2 31 -37z"/>
<path d="M8450 21973 c-31 -12 -70 -45 -64 -54 4 -6 12 -5 22 4 10 9 36 20 59
26 41 11 61 8 137 -24 34 -15 12 19 -25 37 -33 17 -99 22 -129 11z"/>
<path d="M1020 21930 c-12 -7 -12 -12 -2 -22 9 -9 15 -9 24 0 16 16 -2 34 -22
22z"/>
<path d="M8451 21892 c-22 -17 -20 -17 48 -17 74 0 89 9 45 25 -38 15 -69 12
-93 -8z"/>
<path d="M8678 21861 c-22 -22 -23 -31 -3 -31 9 0 15 -9 15 -25 0 -14 5 -25
10 -25 6 0 10 11 10 24 0 13 5 26 11 28 8 3 8 10 -2 26 -16 26 -19 26 -41 3z"/>
<path d="M8942 21813 c4 -86 22 -85 26 2 2 54 0 65 -13 65 -13 0 -15 -11 -13
-67z"/>
<path d="M8491 21826 c-12 -14 -5 -26 16 -26 15 0 18 26 4 34 -5 3 -14 0 -20
-8z"/>
<path d="M8590 21808 c0 -25 -3 -29 -10 -18 -8 13 -10 13 -10 -1 0 -28 25 -42
49 -27 25 15 27 28 6 28 -9 0 -15 9 -15 25 0 14 -4 25 -10 25 -5 0 -10 -15
-10 -32z"/>
<path d="M8862 21773 c4 -39 28 -42 28 -4 0 21 -5 31 -16 31 -11 0 -14 -8 -12
-27z"/>
<path d="M1013 21748 c2 -7 10 -13 17 -13 7 0 15 6 18 13 2 7 -5 12 -18 12
-13 0 -20 -5 -17 -12z"/>
<path d="M2006 21040 c-17 -10 -40 -36 -53 -57 -19 -32 -23 -52 -23 -128 0
-69 4 -99 19 -125 56 -106 221 -109 271 -5 26 53 26 55 -10 55 -24 0 -30 -4
-30 -20 0 -37 -44 -70 -92 -70 -77 1 -108 48 -108 165 0 112 35 165 108 165
46 0 71 -16 88 -56 11 -25 20 -34 38 -34 23 0 24 2 15 33 -5 17 -24 47 -44 65
-31 28 -41 32 -92 32 -41 0 -67 -6 -87 -20z"/>
<path d="M3880 21057 c0 -1 -34 -90 -75 -197 -41 -107 -75 -198 -75 -202 0 -5
11 -8 24 -8 19 0 27 9 42 53 l19 52 89 0 89 0 17 -50 c14 -42 21 -50 45 -53
20 -3 26 0 23 10 -3 7 -38 100 -78 206 -66 173 -76 192 -97 192 -13 0 -23 -1
-23 -3z m84 -231 l6 -26 -65 0 c-72 0 -75 3 -52 61 8 19 22 56 32 83 l18 50
27 -71 c15 -39 30 -82 34 -97z"/>
<path d="M4734 21045 c-4 -9 -2 -21 4 -27 16 -16 47 -5 47 17 0 26 -42 34 -51
10z"/>
<path d="M632 20937 l-102 -102 103 -103 c97 -97 103 -101 120 -85 16 17 13
21 -55 90 l-72 73 157 0 157 0 0 25 0 25 -157 0 -157 0 72 73 c70 70 72 74 54
90 -17 16 -23 11 -120 -86z"/>
<path d="M3140 20990 c0 -38 -2 -40 -30 -40 -23 0 -30 -4 -30 -20 0 -16 7 -20
30 -20 l30 0 0 -113 c0 -128 9 -147 68 -147 25 0 32 4 32 19 0 13 -8 21 -22
23 -22 3 -23 8 -26 111 l-3 107 26 0 c18 0 25 5 25 20 0 15 -7 20 -25 20 -22
0 -25 4 -25 40 0 36 -2 40 -25 40 -22 0 -25 -4 -25 -40z"/>
<path d="M6660 20990 c0 -36 -2 -40 -25 -40 -18 0 -25 -5 -25 -20 0 -14 7 -20
24 -20 24 0 24 -1 28 -116 3 -129 11 -144 75 -144 26 0 33 4 33 20 0 14 -7 20
-24 20 -32 0 -36 15 -36 126 l0 94 30 0 c23 0 30 4 30 20 0 16 -7 20 -30 20
-28 0 -30 2 -30 40 0 36 -2 40 -25 40 -22 0 -25 -4 -25 -40z"/>
<path d="M2310 20800 l0 -150 24 0 c24 0 24 1 25 112 1 62 7 118 12 125 6 7
26 15 45 19 24 4 34 12 34 25 0 24 -51 27 -70 4 -7 -8 -16 -15 -21 -15 -5 0
-9 7 -9 15 0 8 -9 15 -20 15 -19 0 -20 -7 -20 -150z"/>
<path d="M2549 20933 c-42 -26 -63 -71 -63 -133 0 -98 47 -150 136 -150 43 0
108 30 108 50 0 19 -30 23 -49 6 -13 -12 -32 -16 -62 -14 -36 3 -47 8 -66 37
-39 58 -35 61 83 61 l107 0 -7 41 c-9 57 -32 98 -62 109 -38 15 -96 11 -125
-7z m107 -31 c13 -8 34 -46 34 -61 0 -7 -30 -11 -80 -11 l-80 0 11 28 c5 15
17 33 26 40 18 13 71 16 89 4z"/>
<path d="M2848 20934 c-24 -13 -48 -42 -48 -58 0 -15 47 -4 63 14 11 14 29 20
55 20 43 0 62 -14 62 -46 0 -19 -7 -22 -58 -28 -54 -6 -97 -25 -114 -50 -17
-25 -8 -87 17 -111 28 -29 99 -34 131 -10 25 19 34 19 34 0 0 -9 9 -15 23 -15
22 0 22 1 19 118 -3 126 -11 154 -49 171 -33 15 -103 13 -135 -5z m132 -173
c0 -30 -6 -44 -22 -55 -27 -19 -82 -21 -96 -3 -41 52 -10 97 68 97 l50 0 0
-39z"/>
<path d="M3359 20933 c-42 -26 -63 -71 -63 -133 0 -98 47 -150 136 -150 43 0
108 30 108 50 0 19 -30 23 -49 6 -10 -9 -35 -16 -58 -16 -45 0 -77 26 -88 73
l-7 27 106 0 106 0 0 28 c-1 38 -34 108 -58 121 -30 16 -103 13 -133 -6z m107
-31 c13 -8 34 -46 34 -61 0 -7 -30 -11 -79 -11 -73 0 -79 1 -74 19 13 48 81
79 119 53z"/>
<path d="M4159 20921 c-54 -54 -28 -104 72 -136 68 -22 91 -44 73 -72 -7 -12
-26 -19 -56 -21 -39 -3 -49 1 -66 22 -11 15 -29 26 -41 26 -24 0 -25 -1 -10
-33 16 -35 60 -57 114 -57 62 0 103 25 111 66 10 56 -9 73 -131 116 -67 23
-56 78 15 78 29 0 43 -6 58 -25 11 -14 29 -25 41 -25 25 0 25 2 6 40 -20 39
-43 50 -105 50 -44 0 -56 -5 -81 -29z"/>
<path d="M4470 20933 c-33 -23 -40 -33 -40 -65 0 -36 31 -63 88 -78 86 -23
110 -50 76 -84 -31 -31 -124 -13 -124 25 0 5 -11 9 -25 9 -35 0 -32 -25 6 -61
27 -25 39 -29 91 -29 52 0 63 3 89 29 32 32 35 47 18 85 -11 24 -39 38 -123
63 -67 20 -59 76 12 81 35 3 43 -1 58 -22 19 -31 54 -35 54 -7 0 11 -14 31
-31 45 -37 31 -110 36 -149 9z"/>
<path d="M4730 20800 l0 -150 25 0 25 0 0 150 0 150 -25 0 -25 0 0 -150z"/>
<path d="M4911 20934 c-69 -49 -67 -220 3 -269 27 -20 96 -19 124 1 21 14 22
14 22 -11 0 -28 -16 -66 -34 -77 -22 -15 -83 -8 -108 12 -27 21 -38 18 -38
-11 0 -42 111 -64 170 -34 53 27 60 56 60 240 l0 165 -25 0 c-14 0 -24 -3 -24
-7 3 -21 -3 -23 -23 -9 -29 21 -97 20 -127 0z m127 -40 c20 -13 22 -24 22 -94
0 -70 -2 -81 -22 -94 -12 -9 -37 -16 -54 -16 -49 0 -74 38 -74 110 0 72 25
110 74 110 17 0 42 -7 54 -16z"/>
<path d="M5194 20937 c-2 -7 -3 -74 -2 -148 3 -130 4 -134 26 -137 22 -3 22
-2 22 101 0 90 3 108 21 131 16 20 29 26 59 26 53 0 60 -16 60 -149 l0 -111
26 0 26 0 -4 131 c-3 123 -4 132 -27 150 -28 23 -99 25 -127 4 -25 -19 -34
-19 -34 0 0 18 -39 20 -46 2z"/>
<path d="M5510 20800 l0 -150 25 0 25 0 0 110 c0 126 12 150 73 150 58 0 67
-21 67 -148 l0 -112 25 0 25 0 0 110 c0 126 12 150 74 150 55 0 66 -25 66
-152 l0 -108 25 0 25 0 0 109 c0 123 -10 163 -46 180 -39 17 -93 13 -125 -10
l-29 -20 -22 20 c-27 26 -98 28 -133 5 -23 -15 -25 -15 -25 0 0 10 -9 16 -25
16 l-25 0 0 -150z"/>
<path d="M6069 20927 c-45 -30 -59 -60 -59 -130 0 -99 45 -147 138 -147 39 0
57 5 79 24 21 19 25 27 16 36 -9 10 -17 9 -34 -4 -13 -9 -41 -16 -62 -16 -45
0 -87 36 -87 75 l0 25 100 0 100 0 0 30 c0 42 -23 94 -51 114 -34 23 -99 20
-140 -7z m119 -30 c6 -6 13 -24 17 -40 l7 -27 -76 0 c-84 0 -92 7 -55 54 16
20 29 26 59 26 20 0 42 -6 48 -13z"/>
<path d="M6330 20800 l0 -150 24 0 c23 0 24 1 25 113 1 100 4 114 22 130 24
20 79 23 97 5 8 -8 12 -52 12 -130 l0 -118 25 0 25 0 0 125 c0 120 -1 127 -25
150 -28 29 -99 34 -131 10 -25 -19 -34 -19 -34 0 0 8 -9 15 -20 15 -19 0 -20
-7 -20 -150z"/>
<path d="M540 18984 c-6 -15 -29 -75 -51 -133 -56 -144 -55 -144 -34 -140 10
2 23 19 30 39 12 35 12 35 77 38 l65 3 17 -41 c9 -24 22 -40 32 -40 20 0 21
-4 -44 165 -52 136 -73 161 -92 109z m49 -84 c29 -77 28 -80 -24 -80 -32 0
-45 4 -45 14 0 16 41 128 46 124 1 -2 12 -28 23 -58z"/>
<path d="M1210 18991 c0 -12 6 -21 16 -21 9 0 14 7 12 17 -5 25 -28 28 -28 4z"/>
<path d="M2950 18860 c0 -136 2 -150 18 -150 15 0 17 11 15 105 -1 57 2 107 6
110 5 2 40 -45 79 -105 39 -61 78 -110 86 -110 18 0 23 55 18 203 -3 75 -6 97
-17 97 -11 0 -15 -25 -17 -117 l-3 -117 -75 117 c-104 162 -110 160 -110 -33z"/>
<path d="M2690 18965 c0 -18 -5 -25 -20 -25 -11 0 -20 -7 -20 -15 0 -8 9 -15
20 -15 18 0 20 -7 20 -84 0 -89 11 -116 50 -116 26 0 35 19 13 27 -28 10 -33
23 -33 101 0 65 2 72 20 72 11 0 20 7 20 15 0 8 -9 15 -20 15 -15 0 -20 7 -20
25 0 16 -6 25 -15 25 -9 0 -15 -9 -15 -25z"/>
<path d="M780 18927 c-32 -16 -48 -60 -30 -82 7 -8 37 -22 66 -31 46 -13 54
-19 54 -40 0 -17 -7 -25 -26 -30 -28 -7 -74 9 -74 26 0 5 -7 10 -15 10 -22 0
-18 -24 6 -46 27 -24 101 -26 125 -2 18 18 22 64 7 79 -5 5 -32 18 -59 27 -41
15 -49 22 -49 42 0 21 6 26 32 28 24 2 35 -2 45 -17 14 -23 38 -28 38 -8 0 20
-14 35 -43 46 -36 14 -46 14 -77 -2z"/>
<path d="M1013 18930 c-12 -5 -27 -19 -33 -31 -19 -34 1 -66 52 -80 53 -15 68
-26 68 -50 0 -12 -10 -21 -26 -25 -28 -7 -74 9 -74 26 0 5 -7 10 -15 10 -18 0
-19 -19 -1 -42 29 -38 123 -30 146 12 22 41 -13 79 -88 95 -29 6 -33 11 -30
33 2 22 9 28 35 30 24 2 35 -2 45 -17 14 -23 38 -28 38 -8 -1 43 -64 68 -117
47z"/>
<path d="M1210 18825 c0 -96 3 -115 15 -115 12 0 15 19 15 115 0 96 -3 115
-15 115 -12 0 -15 -19 -15 -115z"/>
<path d="M1344 18917 c-55 -47 -40 -174 24 -198 26 -10 38 -9 75 6 22 9 23
-21 1 -53 -18 -26 -55 -29 -88 -6 -29 18 -43 3 -18 -18 43 -38 119 -28 141 18
6 14 11 77 11 149 0 104 -2 125 -15 125 -8 0 -15 -7 -15 -16 0 -14 -2 -14 -22
0 -31 22 -62 20 -94 -7z m100 -23 c22 -21 21 -111 -1 -136 -20 -22 -56 -23
-77 -3 -32 33 -28 125 7 147 20 13 55 9 71 -8z"/>
<path d="M1570 18825 c0 -96 3 -115 15 -115 12 0 15 16 15 83 0 89 13 117 56
117 43 0 49 -15 49 -110 0 -79 2 -90 18 -90 15 0 17 11 17 83 0 105 -6 123
-42 138 -25 10 -35 9 -64 -4 -29 -14 -34 -15 -34 -2 0 8 -7 15 -15 15 -12 0
-15 -19 -15 -115z"/>
<path d="M1810 18825 c0 -108 1 -115 20 -115 17 0 20 8 22 92 3 91 3 93 31
102 51 18 62 1 65 -103 2 -72 6 -91 17 -91 12 0 15 16 15 73 0 84 15 121 50
125 48 5 55 -10 55 -108 0 -79 2 -90 18 -90 15 0 17 11 17 94 0 73 -4 98 -16
110 -24 25 -60 29 -94 13 -27 -14 -33 -14 -62 0 -25 13 -37 14 -62 4 -20 -7
-32 -8 -34 -1 -2 5 -12 10 -23 10 -18 0 -19 -8 -19 -115z"/>
<path d="M2245 18928 c-39 -23 -49 -41 -53 -99 -4 -51 -2 -60 21 -83 35 -35
72 -42 113 -23 34 16 42 31 25 41 -5 3 -14 -1 -21 -9 -20 -24 -66 -18 -89 11
-37 47 -29 54 54 54 66 0 75 2 75 19 0 74 -67 122 -125 89z m72 -30 c31 -40
25 -48 -37 -48 -52 0 -59 2 -53 18 8 24 33 42 59 42 12 0 26 -6 31 -12z"/>
<path d="M2430 18825 c0 -92 3 -115 14 -115 11 0 15 21 17 86 4 92 17 114 66
114 33 0 43 -29 43 -119 0 -65 3 -81 15 -81 22 0 22 182 -1 204 -25 25 -61 30
-89 12 -30 -20 -35 -20 -35 -1 0 8 -7 15 -15 15 -12 0 -15 -19 -15 -115z"/>
<path d="M3300 18929 c-24 -10 -40 -26 -40 -41 0 -14 27 -9 40 7 16 20 54 19
74 -1 29 -28 19 -41 -36 -47 -84 -10 -117 -73 -62 -116 32 -25 46 -26 84 -6
17 9 30 11 30 5 0 -5 8 -10 18 -10 15 0 17 10 14 89 -3 69 -7 93 -21 105 -23
21 -70 28 -101 15z m88 -132 c6 -53 -87 -77 -103 -26 -9 27 10 47 48 52 47 5
52 3 55 -26z"/>
<path d="M3500 18825 c0 -96 3 -115 15 -115 12 0 15 16 15 84 0 91 11 116 53
116 42 0 48 -13 49 -96 1 -89 4 -104 24 -104 11 0 14 19 14 84 0 92 11 116 54
116 38 0 46 -19 46 -113 0 -79 2 -88 18 -85 14 3 17 16 19 78 2 128 -36 173
-114 136 -31 -15 -36 -15 -56 -1 -27 19 -44 19 -79 1 -24 -13 -28 -13 -28 0 0
8 -7 14 -15 14 -12 0 -15 -19 -15 -115z"/>
<path d="M3921 18926 c-32 -18 -50 -53 -51 -98 0 -49 16 -81 50 -101 40 -24
75 -21 107 9 l28 26 -25 -7 c-81 -22 -107 -13 -124 43 -7 21 -6 22 68 22 74 0
76 1 76 25 0 74 -66 116 -129 81z m83 -38 c24 -34 20 -38 -39 -38 -59 0 -70
13 -39 44 22 23 60 20 78 -6z"/>
<path d="M420 18000 c0 -7 1667 -10 4980 -10 3313 0 4980 3 4980 10 0 7 -1667
10 -4980 10 -3313 0 -4980 -3 -4980 -10z"/>
<path d="M510 17308 c-22 -15 -40 -38 -48 -63 -16 -48 -10 -127 13 -162 19
-28 71 -53 112 -53 14 0 37 -10 50 -22 19 -17 26 -19 36 -9 9 10 7 16 -12 30
l-24 19 21 27 c27 34 36 82 27 141 -14 95 -102 142 -175 92z m120 -33 c20 -20
25 -142 8 -175 -18 -34 -58 -47 -96 -31 -37 15 -52 48 -52 111 0 58 14 94 44
109 26 13 76 6 96 -14z"/>
<path d="M1625 17321 c-8 -15 3 -31 21 -31 9 0 14 7 12 17 -4 20 -24 28 -33
14z"/>
<path d="M1489 17305 c-1 -3 -3 -9 -4 -15 -1 -5 -3 -14 -4 -20 0 -5 -10 -10
-21 -10 -11 0 -20 -7 -20 -15 0 -8 9 -15 20 -15 11 0 20 -6 21 -12 0 -7 1 -46
2 -86 2 -77 16 -102 59 -102 24 0 23 26 -2 33 -18 5 -20 14 -20 86 0 74 2 81
20 81 11 0 20 7 20 15 0 8 -9 15 -20 15 -15 0 -20 7 -20 25 0 16 -6 25 -15 25
-8 0 -16 -2 -16 -5z"/>
<path d="M760 17169 c0 -50 4 -99 10 -109 13 -24 59 -34 96 -20 20 8 30 8 32
1 2 -6 10 -11 18 -11 11 0 14 22 14 115 0 108 -1 115 -20 115 -19 0 -20 -7
-20 -90 0 -78 -2 -91 -19 -100 -30 -16 -59 -12 -71 9 -5 11 -10 56 -10 100 0
65 -3 81 -15 81 -12 0 -15 -17 -15 -91z"/>
<path d="M1050 17247 c-14 -7 -33 -29 -44 -50 -47 -98 45 -203 133 -151 17 10
31 21 31 24 0 16 -14 18 -34 5 -11 -8 -31 -15 -43 -15 -28 0 -63 33 -63 60 0
18 7 20 75 20 84 0 86 3 60 65 -20 49 -67 66 -115 42z m80 -36 c18 -35 12 -41
-45 -41 -59 0 -67 8 -35 40 26 26 66 26 80 1z"/>
<path d="M1290 17253 c-47 -18 -65 -68 -35 -93 8 -6 33 -18 57 -24 50 -15 68
-37 49 -60 -19 -23 -68 -20 -83 4 -12 19 -48 28 -48 12 0 -17 40 -50 69 -57
17 -4 43 0 65 9 30 12 36 20 36 44 0 35 -22 56 -77 72 -23 7 -45 20 -48 28
-15 39 65 60 85 22 12 -23 40 -27 40 -7 0 33 -72 65 -110 50z"/>
<path d="M1620 17145 c0 -108 1 -115 20 -115 19 0 20 7 20 115 0 108 -1 115
-20 115 -19 0 -20 -7 -20 -115z"/>
<path d="M1778 17244 c-36 -19 -48 -43 -48 -94 0 -79 52 -130 118 -115 43 9
64 38 70 96 6 59 -10 94 -50 115 -34 18 -56 17 -90 -2z m78 -22 c37 -24 44
-96 13 -136 -23 -29 -55 -33 -85 -12 -28 21 -28 121 0 142 21 15 54 18 72 6z"/>
<path d="M1990 17145 c0 -96 3 -115 15 -115 12 0 15 15 15 78 0 86 16 122 53
122 41 0 46 -12 48 -108 1 -83 3 -92 20 -92 17 0 19 8 19 83 0 105 -6 123 -42
138 -25 10 -35 9 -64 -4 -29 -14 -34 -15 -34 -2 0 8 -7 15 -15 15 -12 0 -15
-19 -15 -115z"/>
<path d="M420 16320 c0 -7 1667 -10 4980 -10 3313 0 4980 3 4980 10 0 7 -1667
10 -4980 10 -3313 0 -4980 -3 -4980 -10z"/>
<path d="M501 15646 c-35 -19 -50 -54 -51 -114 0 -97 51 -147 128 -124 49 15
72 54 72 122 0 65 -21 105 -61 119 -41 14 -58 13 -88 -3z m98 -42 c33 -42 26
-141 -13 -166 -21 -14 -66 -8 -86 12 -16 16 -20 33 -20 80 0 47 4 64 20 80 29
29 74 26 99 -6z"/>
<path d="M1055 15650 c-8 -13 4 -32 16 -25 12 8 12 35 0 35 -6 0 -13 -4 -16
-10z"/>
<path d="M930 15625 c0 -16 -6 -25 -15 -25 -8 0 -15 -4 -15 -10 0 -5 6 -10 14
-10 10 0 15 -20 18 -80 3 -83 12 -100 51 -100 24 0 22 26 -3 33 -17 4 -20 14
-20 72 0 58 3 68 20 72 11 3 20 9 20 14 0 5 -9 9 -20 9 -15 0 -20 7 -20 25 0
16 -6 25 -15 25 -9 0 -15 -9 -15 -25z"/>
<path d="M710 15460 c0 -118 2 -140 15 -140 11 0 15 12 15 50 0 49 0 49 24 39
35 -16 73 -3 91 31 44 85 -16 186 -91 151 -15 -6 -24 -7 -24 -1 0 6 -7 10 -15
10 -13 0 -15 -22 -15 -140z m104 104 c22 -8 31 -68 16 -104 -10 -25 -18 -30
-45 -30 -38 0 -45 12 -45 74 0 58 25 79 74 60z"/>
<path d="M1050 15500 c0 -82 3 -100 15 -100 12 0 15 18 15 100 0 82 -3 100
-15 100 -12 0 -15 -18 -15 -100z"/>
<path d="M1190 15593 c-30 -11 -50 -48 -50 -93 0 -57 24 -89 71 -96 29 -5 41
-1 65 19 25 22 29 32 29 77 0 44 -4 55 -28 76 -27 23 -55 29 -87 17z m74 -45
c23 -33 20 -75 -8 -103 -54 -54 -117 29 -77 103 16 30 64 30 85 0z"/>
<path d="M1360 15500 c0 -82 3 -100 15 -100 12 0 15 14 15 68 0 81 13 105 55
100 l30 -3 3 -82 c2 -65 6 -83 17 -83 12 0 15 17 15 85 0 80 -1 85 -26 102
-22 14 -31 15 -57 5 -21 -8 -33 -9 -35 -2 -2 5 -10 10 -18 10 -11 0 -14 -20
-14 -100z"/>
<path d="M1603 15590 c-12 -5 -25 -21 -29 -36 -8 -32 10 -49 69 -65 31 -8 38
-14 35 -32 -4 -28 -64 -38 -74 -13 -8 20 -34 21 -34 2 0 -19 22 -35 58 -42 44
-9 82 17 82 56 0 25 -6 31 -52 48 -38 14 -53 25 -53 38 0 25 62 33 71 10 8
-20 34 -21 34 -2 0 31 -66 54 -107 36z"/>
<path d="M1770 15581 c0 -12 6 -21 16 -21 9 0 14 7 12 17 -5 25 -28 28 -28 4z"/>
<path d="M1770 15420 c0 -11 7 -20 15 -20 8 0 15 9 15 20 0 11 -7 20 -15 20
-8 0 -15 -9 -15 -20z"/>
<path d="M523 14326 c-43 -20 -67 -68 -67 -136 1 -71 25 -117 71 -137 100 -41
177 44 159 175 -11 85 -89 131 -163 98z m110 -47 c12 -16 17 -39 17 -89 0 -78
-16 -106 -66 -116 -24 -4 -37 0 -59 18 -50 43 -45 180 8 206 30 16 78 6 100
-19z"/>
<path d="M1160 14320 c0 -15 5 -20 18 -18 9 2 17 10 17 18 0 8 -8 16 -17 18
-13 2 -18 -3 -18 -18z"/>
<path d="M1943 14314 c-51 -22 -76 -53 -33 -40 11 3 29 9 40 12 19 6 20 2 20
-120 0 -103 3 -126 14 -126 12 0 16 26 18 141 2 78 1 145 -2 149 -3 4 -29 -3
-57 -16z"/>
<path d="M1020 14295 c0 -18 -5 -25 -20 -25 -11 0 -20 -7 -20 -15 0 -8 9 -15
20 -15 18 0 20 -7 20 -78 0 -87 17 -125 53 -120 27 4 33 24 8 31 -17 4 -20 15
-23 86 -3 78 -2 81 20 81 13 0 22 6 22 15 0 8 -9 15 -20 15 -15 0 -20 7 -20
25 0 18 -5 25 -20 25 -15 0 -20 -7 -20 -25z"/>
<path d="M760 14110 c0 -136 2 -160 15 -160 12 0 15 13 15 56 0 49 2 55 18 49
52 -20 71 -18 103 14 30 30 31 35 27 93 -4 51 -9 65 -32 85 -31 27 -50 29 -88
9 -24 -13 -28 -13 -28 0 0 8 -7 14 -15 14 -13 0 -15 -24 -15 -160z m124 115
c19 -19 30 -76 21 -104 -15 -49 -62 -66 -97 -34 -24 22 -25 109 -1 135 20 22
56 23 77 3z"/>
<path d="M1160 14155 c0 -109 1 -115 20 -115 20 0 20 6 19 115 -2 104 -4 115
-21 115 -16 0 -18 -10 -18 -115z"/>
<path d="M1320 14257 c-82 -41 -68 -193 21 -212 67 -15 119 35 119 116 0 33
-6 47 -34 75 -36 36 -65 42 -106 21z m86 -38 c12 -14 19 -36 19 -64 0 -52 -26
-85 -66 -85 -37 0 -59 33 -59 87 0 73 63 110 106 62z"/>
<path d="M1528 14155 c3 -90 6 -115 17 -115 11 0 15 20 17 87 3 83 4 88 30
103 21 11 32 12 45 4 15 -9 19 -28 21 -103 3 -85 4 -91 24 -91 20 0 20 4 16
96 -4 86 -7 99 -27 115 -28 23 -47 24 -83 5 -24 -13 -28 -13 -28 0 0 8 -8 14
-17 14 -16 0 -18 -11 -15 -115z"/>
<path d="M425 13330 c-3 -5 -1 -10 4 -10 6 0 11 5 11 10 0 6 -2 10 -4 10 -3 0
-8 -4 -11 -10z"/>
<path d="M450 13330 c0 -7 1657 -10 4950 -10 3293 0 4950 3 4950 10 0 7 -1657
10 -4950 10 -3293 0 -4950 -3 -4950 -10z"/>
<path d="M10360 13330 c0 -5 5 -10 11 -10 5 0 7 5 4 10 -3 6 -8 10 -11 10 -2
0 -4 -4 -4 -10z"/>
<path d="M523 12375 c-17 -7 -40 -28 -49 -47 -24 -44 -24 -132 0 -176 21 -40
75 -66 121 -58 108 21 131 216 33 276 -38 23 -61 24 -105 5z m106 -39 c31 -32
31 -160 0 -192 -8 -7 -28 -16 -45 -20 -24 -4 -37 0 -60 19 -27 24 -29 30 -29
97 0 67 2 73 29 97 23 19 36 23 60 19 17 -4 37 -13 45 -20z"/>
<path d="M1167 12384 c-14 -14 -7 -35 11 -32 9 2 17 10 17 17 0 16 -18 25 -28
15z"/>
<path d="M1934 12380 c-41 -16 -71 -80 -39 -80 8 0 15 5 15 10 0 19 40 50 63
50 28 0 57 -29 57 -56 0 -21 -40 -74 -107 -145 -24 -24 -43 -50 -43 -56 0 -10
27 -13 100 -13 81 0 100 3 100 15 0 11 -17 15 -75 17 l-74 3 59 68 c33 37 63
79 66 93 18 71 -50 123 -122 94z"/>
<path d="M1020 12346 c0 -19 -5 -26 -20 -26 -11 0 -20 -7 -20 -15 0 -8 9 -15
20 -15 18 0 20 -7 20 -84 0 -76 2 -86 22 -100 12 -9 30 -16 40 -16 25 0 23 26
-2 33 -18 5 -20 14 -20 86 0 74 2 81 20 81 11 0 20 7 20 15 0 9 -9 15 -23 15
-18 0 -23 5 -23 22 1 14 -6 24 -16 26 -14 3 -18 -3 -18 -22z"/>
<path d="M760 12160 c0 -136 2 -160 15 -160 12 0 15 13 15 56 0 54 1 56 23 49
55 -17 64 -16 92 8 24 20 29 33 33 85 4 58 3 63 -26 92 -34 33 -54 37 -94 16
-24 -13 -28 -13 -28 0 0 8 -7 14 -15 14 -13 0 -15 -24 -15 -160z m124 115 c22
-22 29 -75 16 -110 -13 -34 -26 -45 -57 -45 -36 0 -53 26 -53 85 0 60 16 85
55 85 13 0 30 -7 39 -15z"/>
<path d="M1160 12205 c0 -109 1 -115 20 -115 20 0 21 5 19 115 -1 105 -3 115
-20 115 -18 0 -19 -9 -19 -115z"/>
<path d="M1330 12313 c-78 -29 -89 -160 -16 -204 38 -23 60 -24 96 -2 68 40
68 156 0 196 -28 17 -52 20 -80 10z m72 -40 c22 -26 30 -59 23 -93 -21 -95
-125 -74 -125 25 0 72 62 113 102 68z"/>
<path d="M1528 12205 c-3 -104 -1 -115 15 -115 15 0 17 11 17 83 0 90 13 117
56 117 36 0 44 -20 44 -112 0 -83 1 -88 21 -88 21 0 21 4 17 96 -4 86 -7 99
-27 115 -28 23 -54 24 -86 3 -23 -15 -25 -15 -25 0 0 9 -6 16 -14 16 -12 0
-15 -23 -18 -115z"/>
<path d="M2913 11383 c1368 -2 3606 -2 4975 0 1368 1 248 2 -2488 2 -2736 0
-3856 -1 -2487 -2z"/>
<path d="M523 10436 c-77 -35 -94 -202 -26 -256 87 -68 193 -4 193 117 0 113
-78 178 -167 139z m110 -47 c26 -31 27 -136 2 -175 -29 -45 -111 -38 -134 12
-6 14 -11 50 -11 80 0 49 4 59 30 86 26 25 36 29 63 24 18 -3 40 -16 50 -27z"/>
<path d="M1167 10444 c-14 -15 -6 -34 14 -34 14 0 19 5 17 17 -3 18 -20 27
-31 17z"/>
<path d="M1934 10441 c-21 -9 -54 -48 -54 -63 0 -18 36 -6 45 15 15 33 69 36
90 4 26 -40 3 -77 -47 -77 -18 0 -28 -5 -28 -15 0 -10 10 -15 29 -15 55 0 82
-58 43 -93 -28 -25 -69 -21 -88 8 -17 27 -44 34 -44 12 0 -20 41 -54 73 -62
33 -9 84 10 97 36 16 30 11 78 -10 99 l-20 20 20 20 c41 41 13 107 -50 115
-19 3 -45 1 -56 -4z"/>
<path d="M1020 10405 c0 -18 -5 -25 -20 -25 -11 0 -20 -7 -20 -15 0 -8 9 -15
20 -15 18 0 20 -7 20 -80 0 -67 3 -83 21 -101 21 -21 50 -22 57 -1 2 7 -5 12
-17 12 -20 0 -21 6 -21 85 0 78 2 85 20 85 11 0 20 7 20 15 0 8 -9 15 -20 15
-15 0 -20 7 -20 25 0 18 -5 25 -20 25 -15 0 -20 -7 -20 -25z"/>
<path d="M760 10220 c0 -136 2 -160 15 -160 12 0 15 13 15 56 0 49 2 55 18 49
47 -18 69 -16 97 8 24 20 29 33 33 85 4 58 3 63 -26 92 -34 33 -54 37 -94 16
-24 -13 -28 -13 -28 0 0 8 -7 14 -15 14 -13 0 -15 -24 -15 -160z m126 109 c41
-46 14 -149 -39 -149 -37 0 -57 29 -57 83 0 80 52 115 96 66z"/>
<path d="M1160 10265 c0 -108 1 -115 20 -115 19 0 20 7 20 115 0 108 -1 115
-20 115 -19 0 -20 -7 -20 -115z"/>
<path d="M1323 10370 c-55 -22 -76 -125 -36 -178 58 -78 173 -32 173 69 0 48
-28 96 -62 108 -36 13 -45 13 -75 1z m83 -41 c12 -14 19 -36 19 -64 0 -75 -59
-111 -106 -64 -18 18 -20 30 -17 70 3 27 11 55 18 64 18 22 64 19 86 -6z"/>
<path d="M1528 10265 c3 -90 6 -115 17 -115 11 0 15 20 17 87 3 83 4 88 30
103 21 11 32 12 45 4 15 -9 19 -28 21 -103 2 -81 5 -92 20 -89 15 3 17 17 17
97 0 85 -2 95 -24 112 -28 23 -47 24 -83 5 -24 -13 -28 -13 -28 0 0 8 -8 14
-17 14 -16 0 -18 -11 -15 -115z"/>
<path d="M420 9440 c0 -7 1667 -10 4980 -10 3313 0 4980 3 4980 10 0 7 -1667
10 -4980 10 -3313 0 -4980 -3 -4980 -10z"/>
<path d="M525 8496 c-49 -21 -68 -60 -68 -136 0 -77 17 -110 68 -134 43 -21
63 -20 103 4 75 46 84 191 15 253 -28 24 -81 30 -118 13z m84 -31 c36 -18 41
-32 41 -110 0 -73 -17 -101 -67 -111 -27 -5 -37 -1 -63 24 -27 27 -30 37 -30
92 0 55 3 65 29 91 33 33 50 35 90 14z"/>
<path d="M1167 8504 c-14 -14 -7 -35 11 -32 9 2 17 10 17 17 0 16 -18 25 -28
15z"/>
<path d="M1940 8413 c-88 -136 -88 -133 -1 -133 l71 0 0 -35 c0 -24 5 -35 15
-35 10 0 15 11 15 35 0 28 4 35 20 35 11 0 20 7 20 15 0 8 -9 15 -20 15 -19 0
-20 7 -20 100 0 134 -14 135 -100 3z m70 -33 l0 -70 -50 0 c-50 0 -50 0 -38
23 36 61 74 117 80 117 5 0 8 -31 8 -70z"/>
<path d="M1020 8465 c0 -18 -5 -25 -20 -25 -11 0 -20 -7 -20 -15 0 -8 9 -15
20 -15 18 0 20 -7 20 -80 0 -67 3 -83 21 -101 21 -21 50 -22 56 -3 2 6 -5 14
-17 17 -18 5 -20 13 -20 86 0 74 2 81 20 81 11 0 20 7 20 15 0 8 -9 15 -20 15
-15 0 -20 7 -20 25 0 18 -5 25 -20 25 -15 0 -20 -7 -20 -25z"/>
<path d="M760 8280 c0 -136 2 -160 15 -160 12 0 15 13 15 56 0 49 2 55 18 49
52 -20 71 -17 102 13 26 27 30 37 30 87 0 49 -4 60 -29 86 -33 32 -53 36 -93
15 -24 -13 -28 -13 -28 0 0 8 -7 14 -15 14 -13 0 -15 -24 -15 -160z m129 104
c23 -30 26 -59 10 -101 -12 -32 -26 -43 -56 -43 -36 0 -53 26 -53 82 0 84 55
118 99 62z"/>
<path d="M1160 8325 c0 -105 2 -115 18 -115 17 0 19 11 21 115 1 109 1 115
-19 115 -19 0 -20 -6 -20 -115z"/>
<path d="M1330 8433 c-70 -26 -89 -145 -31 -197 10 -9 35 -19 54 -23 32 -5 41
-1 72 30 28 28 35 42 35 76 0 22 -5 52 -12 66 -19 42 -74 64 -118 48z m72 -40
c22 -26 30 -59 23 -93 -21 -95 -125 -74 -125 25 0 72 62 113 102 68z"/>
<path d="M1530 8325 c0 -96 3 -115 15 -115 12 0 15 16 15 83 0 90 13 117 56
117 36 0 44 -20 44 -112 0 -83 1 -88 21 -88 21 0 21 4 17 96 -4 86 -7 99 -27
115 -28 23 -47 24 -83 5 -24 -13 -28 -13 -28 0 0 8 -7 14 -15 14 -12 0 -15
-19 -15 -115z"/>
<path d="M430 7500 c0 -7 1670 -10 4970 -10 3300 0 4970 3 4970 10 0 7 -1670
10 -4970 10 -3300 0 -4970 -3 -4970 -10z"/>
<path d="M505 6568 c-42 -23 -55 -50 -55 -118 0 -74 13 -101 60 -120 43 -18
102 0 118 35 15 33 15 35 -3 35 -8 0 -15 -4 -15 -9 0 -42 -88 -56 -114 -19
-24 34 -21 133 4 158 33 33 110 18 110 -21 0 -5 7 -9 15 -9 35 0 5 53 -39 70
-34 13 -56 12 -81 -2z"/>
<path d="M1850 6562 c-88 -44 -71 -220 23 -237 79 -15 130 43 124 139 -3 51
-8 63 -35 87 -37 33 -63 36 -112 11z m96 -33 c14 -16 19 -36 19 -79 0 -85 -44
-123 -105 -90 -41 22 -48 113 -14 168 19 29 73 30 100 1z"/>
<path d="M2400 6560 c0 -13 5 -20 13 -17 6 2 12 10 12 17 0 7 -6 15 -12 18 -8
2 -13 -5 -13 -18z"/>
<path d="M1580 6545 c0 -16 -6 -25 -15 -25 -8 0 -15 -4 -15 -10 0 -5 7 -10 15
-10 12 0 15 -14 15 -68 0 -74 17 -112 51 -112 25 0 25 26 -1 33 -17 4 -20 14
-20 72 0 58 3 68 20 72 11 3 20 9 20 14 0 5 -9 9 -20 9 -15 0 -20 7 -20 25 0
16 -6 25 -15 25 -9 0 -15 -9 -15 -25z"/>
<path d="M2280 6545 c0 -18 -5 -25 -20 -25 -11 0 -20 -4 -20 -10 0 -5 9 -10
20 -10 18 0 20 -7 20 -79 0 -82 11 -106 46 -99 26 5 29 28 5 28 -19 0 -21 6
-21 74 0 68 2 74 23 81 l22 8 -22 4 c-16 3 -23 11 -23 29 0 15 -6 24 -15 24
-9 0 -15 -9 -15 -25z"/>
<path d="M719 6491 c-23 -23 -29 -38 -29 -71 0 -50 42 -100 85 -100 43 0 85
50 85 100 0 50 -42 100 -85 100 -16 0 -38 -12 -56 -29z m102 -22 c14 -27 6
-99 -13 -110 -7 -5 -25 -9 -40 -9 -32 0 -48 24 -48 70 0 50 16 70 55 70 25 0
37 -6 46 -21z"/>
<path d="M910 6420 c0 -82 3 -100 15 -100 12 0 15 15 15 73 0 75 9 97 42 97
10 0 18 7 18 15 0 18 -21 20 -39 3 -11 -10 -14 -10 -18 0 -3 6 -11 12 -19 12
-11 0 -14 -20 -14 -100z"/>
<path d="M1041 6420 c1 -77 5 -100 15 -100 11 0 14 17 14 68 0 76 5 87 43 101
15 6 27 15 27 21 0 13 -16 13 -43 -1 -16 -9 -22 -9 -25 0 -2 6 -10 11 -18 11
-12 0 -15 -18 -13 -100z"/>
<path d="M1212 6510 c-49 -20 -63 -118 -25 -162 24 -27 78 -33 108 -14 14 9
23 21 19 27 -4 7 -10 6 -19 -1 -24 -20 -78 -8 -92 20 -14 29 -16 28 67 32 55
3 55 3 52 33 -3 33 -43 75 -70 74 -9 0 -27 -4 -40 -9z m72 -36 c11 -29 6 -34
-39 -34 -46 0 -58 13 -33 38 17 17 65 15 72 -4z"/>
<path d="M1403 6505 c-13 -9 -28 -33 -34 -54 -25 -84 55 -161 118 -114 15 10
29 25 31 31 6 18 -25 15 -32 -3 -7 -20 -60 -19 -77 1 -7 9 -14 33 -14 54 0 21
7 45 14 54 19 23 68 21 81 -4 12 -23 30 -26 30 -5 0 22 -41 55 -70 55 -14 0
-35 -7 -47 -15z"/>
<path d="M2050 6380 c0 -118 2 -140 15 -140 14 0 22 44 15 89 -1 10 4 11 17 6
40 -17 60 -16 86 5 24 19 27 28 27 78 0 31 -6 65 -13 74 -18 23 -61 32 -88 17
-17 -9 -24 -9 -27 0 -2 6 -10 11 -18 11 -11 0 -14 -26 -14 -140z m120 95 c7
-9 13 -33 13 -55 0 -49 -17 -70 -54 -70 -33 0 -49 23 -49 70 0 47 16 70 49 70
16 0 34 -7 41 -15z"/>
<path d="M2400 6420 c0 -82 3 -100 15 -100 12 0 15 18 15 100 0 82 -3 100 -15
100 -12 0 -15 -18 -15 -100z"/>
<path d="M2530 6507 c-15 -7 -31 -29 -39 -53 -13 -37 -12 -44 5 -80 37 -75
127 -68 152 12 11 36 11 47 -2 78 -21 51 -67 68 -116 43z m81 -33 c17 -20 16
-88 -1 -109 -16 -20 -64 -19 -81 1 -7 9 -14 33 -14 54 0 21 7 45 14 54 17 21
65 21 82 0z"/>
<path d="M2710 6420 c0 -82 3 -100 15 -100 12 0 15 15 15 73 0 78 9 97 47 97
31 0 43 -28 43 -104 0 -54 3 -66 16 -66 14 0 16 12 13 86 -3 72 -7 88 -24 100
-19 15 -48 14 -89 -2 -14 -5 -17 -4 -12 4 4 7 1 12 -8 12 -13 0 -16 -16 -16
-100z"/>
<path d="M2920 6500 c0 -11 7 -20 15 -20 8 0 15 9 15 20 0 11 -7 20 -15 20 -8
0 -15 -9 -15 -20z"/>
<path d="M2920 6340 c0 -11 7 -20 15 -20 8 0 15 9 15 20 0 11 -7 20 -15 20 -8
0 -15 -9 -15 -20z"/>
<path d="M514 5715 c-45 -23 -64 -63 -64 -135 0 -73 19 -113 66 -135 43 -20
73 -19 112 5 75 46 84 191 16 252 -29 25 -93 32 -130 13z m101 -50 c44 -43 31
-164 -19 -187 -41 -18 -83 6 -97 55 -29 110 49 200 116 132z"/>
<path d="M1137 5724 c-4 -4 -7 -16 -7 -26 0 -14 6 -19 23 -16 14 2 22 10 22
23 0 20 -25 32 -38 19z"/>
<path d="M1893 5707 c-39 -14 -53 -25 -53 -39 0 -19 8 -19 58 -1 9 4 12 -23
12 -116 l0 -121 25 0 25 0 0 144 c0 80 -3 147 -7 149 -5 2 -32 -5 -60 -16z"/>
<path d="M1000 5685 c0 -18 -5 -25 -20 -25 -13 0 -20 -7 -20 -20 0 -13 7 -20
20 -20 18 0 20 -7 20 -77 0 -43 4 -84 8 -90 4 -7 22 -16 40 -19 28 -6 32 -4
32 14 0 11 -8 22 -20 25 -18 5 -20 14 -20 76 0 64 2 71 20 71 13 0 20 7 20 20
0 13 -7 20 -20 20 -15 0 -20 7 -20 25 0 18 -5 25 -20 25 -15 0 -20 -7 -20 -25z"/>
<path d="M740 5500 l0 -160 25 0 c24 0 25 3 25 54 l0 53 41 -11 c39 -10 42 -9
70 22 24 27 29 41 29 83 0 94 -55 144 -120 109 -13 -7 -21 -7 -25 0 -3 5 -15
10 -26 10 -18 0 -19 -8 -19 -160z m129 106 c19 -22 23 -78 9 -106 -15 -28 -52
-38 -74 -20 -17 15 -19 111 -2 128 16 16 53 15 67 -2z"/>
<path d="M1130 5545 l0 -115 25 0 25 0 0 115 0 115 -25 0 -25 0 0 -115z"/>
<path d="M1268 5631 c-30 -26 -33 -35 -33 -84 0 -45 5 -60 24 -81 47 -50 127
-43 156 13 60 117 -54 235 -147 152z m103 -28 c8 -9 14 -35 14 -58 0 -49 -18
-75 -51 -75 -34 0 -54 26 -54 72 0 67 56 104 91 61z"/>
<path d="M1480 5545 l0 -115 25 0 c25 0 25 1 25 83 0 89 8 107 47 107 31 0 43
-33 43 -121 0 -62 2 -69 20 -69 19 0 20 7 20 91 0 50 -4 99 -10 109 -13 24
-63 35 -91 19 -17 -9 -24 -9 -27 0 -2 6 -15 11 -28 11 -24 0 -24 0 -24 -115z"/>
<path d="M2240 5601 c0 -2 26 -30 59 -61 l59 -58 56 57 c31 31 56 59 56 61 0
3 -52 5 -115 5 -63 0 -115 -2 -115 -4z"/>
<path d="M4019 3889 c-14 -5 -32 -22 -38 -36 -17 -37 11 -72 75 -96 27 -10 52
-23 56 -30 9 -15 -8 -44 -31 -52 -25 -8 -71 11 -71 30 0 8 -9 15 -20 15 -49 0
-1 -65 57 -76 41 -8 92 12 102 39 16 43 1 65 -68 99 -53 26 -65 37 -63 53 5
24 1 21 35 29 22 5 32 1 51 -19 28 -30 46 -32 46 -7 0 43 -76 73 -131 51z"/>
<path d="M4952 3888 c-7 -7 -12 -16 -12 -20 0 -5 -15 -48 -34 -96 -50 -130
-51 -132 -27 -132 13 0 23 11 31 35 11 33 14 35 53 35 51 0 63 -7 76 -43 7
-17 18 -27 31 -27 17 0 18 3 9 28 -88 232 -98 249 -127 220z m52 -125 c7 -21
4 -23 -33 -23 -45 0 -44 -6 -10 78 l11 27 13 -30 c7 -16 16 -40 19 -52z"/>
<path d="M5517 3894 c-14 -15 -6 -34 14 -34 14 0 19 5 17 17 -3 18 -20 27 -31
17z"/>
<path d="M6760 3865 c0 -16 -6 -25 -15 -25 -8 0 -15 -7 -15 -15 0 -8 7 -15 15
-15 12 0 15 -14 15 -63 0 -71 19 -110 53 -105 28 4 33 24 7 31 -18 4 -20 13
-20 71 0 59 2 66 20 66 11 0 20 7 20 15 0 8 -9 15 -20 15 -15 0 -20 7 -20 25
0 18 -5 25 -20 25 -15 0 -20 -7 -20 -25z"/>
<path d="M4250 3833 c-20 -7 -50 -34 -50 -45 0 -4 9 -8 20 -8 11 0 20 4 20 9
0 16 40 23 55 11 26 -22 16 -37 -25 -43 -51 -7 -70 -22 -70 -57 0 -48 57 -78
89 -47 11 10 14 10 18 0 3 -7 13 -13 24 -13 17 0 19 8 19 79 0 74 -2 81 -26
100 -27 21 -45 24 -74 14z m60 -123 c0 -30 -46 -49 -67 -28 -24 25 -9 48 32
48 28 0 35 -4 35 -20z"/>
<path d="M4409 3758 c40 -116 41 -118 60 -118 11 0 24 25 44 88 16 48 31 93
34 100 3 7 -3 12 -16 12 -16 0 -24 -13 -42 -72 l-22 -73 -22 70 c-17 56 -26
71 -43 73 -21 3 -21 3 7 -80z"/>
<path d="M4617 3822 c-45 -28 -54 -112 -17 -157 27 -33 130 -24 130 11 0 17 1
17 -38 3 -37 -13 -72 2 -72 31 0 18 7 20 60 20 59 0 60 1 60 28 -1 31 -16 54
-47 70 -29 16 -43 15 -76 -6z m64 -22 c34 -19 23 -40 -21 -40 -43 0 -55 20
-22 39 21 13 20 13 43 1z"/>
<path d="M5146 3819 c-46 -36 -33 -68 40 -91 28 -9 39 -19 39 -33 0 -25 -46
-33 -65 -11 -16 20 -40 21 -40 2 0 -20 24 -36 62 -42 58 -10 113 53 74 85 -7
6 -31 17 -52 25 -27 9 -39 19 -39 32 0 24 37 31 55 9 14 -16 50 -21 50 -6 0
16 -52 51 -75 51 -12 0 -34 -9 -49 -21z"/>
<path d="M5335 3818 c-44 -38 -31 -61 58 -97 19 -7 27 -17 25 -29 -4 -22 -41
-27 -61 -8 -16 17 -47 22 -47 8 0 -26 30 -45 72 -46 51 -1 78 16 78 49 0 27
-15 41 -66 59 -27 9 -39 19 -39 32 0 24 37 30 58 10 16 -16 47 -22 47 -8 -1
20 -31 43 -62 48 -27 5 -41 1 -63 -18z"/>
<path d="M5510 3740 c0 -93 1 -100 20 -100 19 0 20 7 20 100 0 93 -1 100 -20
100 -19 0 -20 -7 -20 -100z"/>
<path d="M5625 3815 c-20 -19 -25 -34 -25 -75 0 -41 5 -56 25 -75 26 -27 46
-31 76 -15 16 9 19 7 19 -15 0 -33 -42 -55 -71 -37 -20 13 -39 9 -39 -8 0 -14
68 -32 92 -25 53 17 58 30 58 157 0 95 -3 118 -14 118 -8 0 -16 -5 -18 -11 -3
-9 -9 -9 -25 0 -32 17 -51 14 -78 -14z m89 -20 c18 -18 13 -104 -7 -117 -34
-22 -67 8 -67 62 0 59 40 89 74 55z"/>
<path d="M5817 3833 c-4 -3 -7 -48 -7 -100 0 -86 1 -93 20 -93 18 0 20 7 20
69 0 50 4 74 16 85 18 19 20 19 45 6 16 -9 19 -22 19 -85 0 -68 2 -75 20 -75
18 0 20 7 20 80 0 67 -3 83 -20 100 -23 23 -42 25 -73 9 -16 -9 -22 -9 -25 0
-4 12 -25 15 -35 4z"/>
<path d="M6020 3740 c0 -93 1 -100 20 -100 18 0 20 7 20 75 0 63 3 76 19 85
25 13 27 13 45 -6 12 -11 16 -35 16 -85 0 -62 2 -69 20 -69 18 0 20 7 20 74 0
80 10 99 48 89 20 -5 22 -11 22 -84 0 -73 2 -79 20 -79 20 0 21 5 18 87 -3 84
-4 88 -31 103 -25 14 -30 13 -58 -2 -27 -16 -32 -16 -45 -3 -18 18 -38 19 -67
4 -16 -9 -22 -9 -25 0 -2 6 -12 11 -23 11 -17 0 -19 -8 -19 -100z"/>
<path d="M6370 3812 c-24 -25 -30 -39 -30 -75 0 -38 5 -49 31 -71 17 -14 39
-26 49 -26 32 0 70 19 70 35 0 18 1 18 -39 4 -27 -9 -35 -8 -51 6 -36 33 -25
45 40 45 59 0 60 0 60 29 0 38 -27 69 -67 77 -27 5 -37 1 -63 -24z m69 -12
c10 -5 21 -16 25 -25 4 -12 -3 -15 -39 -15 -48 0 -62 19 -27 39 21 13 20 13
41 1z"/>
<path d="M6547 3833 c-4 -3 -7 -48 -7 -100 0 -86 1 -93 20 -93 18 0 20 7 20
69 0 73 17 108 47 97 8 -3 19 -6 24 -6 5 0 9 -36 9 -80 0 -73 2 -80 20 -80 18
0 20 7 20 80 0 67 -3 83 -20 100 -23 23 -42 25 -73 9 -16 -9 -22 -9 -25 0 -4
12 -25 15 -35 4z"/>
</g>
</svg>
